<svg xmlns="http://www.w3.org/2000/svg" fill="none" viewBox="0 0 24 24"><path d="M12 4.62c2.4 0 2.7.01 3.64.05.88.04 1.35.19 1.67.31.42.16.72.36 1.03.67.32.32.51.62.67 1.04.13.32.27.8.31 1.67.04.95.06 1.23.06 3.63 0 2.41-.02 2.7-.06 3.64a4.93 4.93 0 0 1-.3 1.67c-.17.42-.37.72-.68 1.03-.31.32-.61.51-1.03.68-.32.12-.8.27-1.67.3-.95.05-1.24.06-3.64.06-2.4 0-2.69-.01-3.63-.05A4.94 4.94 0 0 1 6.7 19a2.78 2.78 0 0 1-1.04-.68A2.77 2.77 0 0 1 5 17.3c-.12-.32-.27-.8-.3-1.67-.05-.95-.06-1.23-.06-3.64 0-2.4 0-2.69.05-3.63.04-.88.19-1.35.31-1.67.16-.42.36-.72.67-1.04.32-.31.62-.5 1.04-.67.31-.12.79-.27 1.67-.3A63.3 63.3 0 0 1 12 4.61ZM12 3a66 66 0 0 0-3.7.05c-.96.04-1.62.2-2.2.42-.59.23-1.09.54-1.59 1.04s-.8 1-1.04 1.6a6.6 6.6 0 0 0-.42 2.18C3.01 9.25 3 9.56 3 12a66 66 0 0 0 .05 3.71c.04.96.2 1.62.42 2.19.23.59.54 1.1 1.04 1.6s1 .8 1.6 1.03a6.6 6.6 0 0 0 2.18.42c.96.04 1.26.05 3.7.05 2.45 0 2.76-.01 3.72-.05.95-.04 1.61-.2 2.18-.42a4.4 4.4 0 0 0 1.6-1.04c.5-.5.8-1 1.03-1.6a6.6 6.6 0 0 0 .42-2.18c.04-.96.05-1.26.05-3.7 0-2.45 0-2.75-.05-3.71a6.58 6.58 0 0 0-.42-2.19c-.22-.6-.53-1.1-1.03-1.6s-1-.8-1.6-1.04a6.6 6.6 0 0 0-2.18-.41C14.75 3 14.46 3 12.02 3Z" fill="#fff"/><path d="M12 7.38a4.63 4.63 0 1 0 0 9.25 4.63 4.63 0 0 0 0-9.25ZM12 15a3 3 0 1 1 0-6 3 3 0 0 1 0 6ZM17.89 7.2a1.08 1.08 0 1 1-2.16 0 1.08 1.08 0 0 1 2.16 0Z" fill="#fff"/></svg>